<svg xmlns="http://www.w3.org/2000/svg" viewBox="0 0 64 64">
  <defs>
    <linearGradient id="bg" x1="10" y1="8" x2="56" y2="58" gradientUnits="userSpaceOnUse">
      <stop offset="0" stop-color="#fa855a" />
      <stop offset="1" stop-color="#c93638" />
    </linearGradient>
    <filter id="soft-shadow" x="-25%" y="-25%" width="150%" height="155%">
      <feDropShadow dx="0" dy="2.5" stdDeviation="2.2" flood-color="#7a4a34" flood-opacity=".2" />
    </filter>
  </defs>
  <rect width="64" height="64" rx="15" fill="url(#bg)" />
  <g transform="rotate(10 32 35)" filter="url(#soft-shadow)">
    <path
      d="M7.8 39.1C6.4 28.9 17.1 18.7 31.9 16.3c16.3-2.6 28.2 4.3 29.6 15.5 1.3 10.8-10.1 18.7-25.4 20.4C20.4 53.9 9.2 49.2 7.8 39.1Z"
      fill="none"
      stroke="#a96c4e"
      stroke-linecap="round"
      stroke-linejoin="round"
      stroke-width="7.6"
      opacity=".2"
      transform="translate(0 1.5)"
    />
    <path
      d="M24.4 32.4c-.4-4.1 3.7-7.4 9.3-7.8 6-.4 10.6 2.2 11 6.2.4 4.1-3.8 7.4-9.8 7.8-5.9.4-10.1-2.1-10.5-6.2Z"
      fill="none"
      stroke="#a96c4e"
      stroke-linecap="round"
      stroke-linejoin="round"
      stroke-width="5.4"
      opacity=".16"
      transform="translate(0 .9)"
    />
    <path
      d="M7.8 39.1C6.4 28.9 17.1 18.7 31.9 16.3c16.3-2.6 28.2 4.3 29.6 15.5 1.3 10.8-10.1 18.7-25.4 20.4C20.4 53.9 9.2 49.2 7.8 39.1Z"
      fill="none"
      stroke="#fffdf8"
      stroke-linecap="round"
      stroke-linejoin="round"
      stroke-width="6.3"
    />
    <path
      d="M24.4 32.4c-.4-4.1 3.7-7.4 9.3-7.8 6-.4 10.6 2.2 11 6.2.4 4.1-3.8 7.4-9.8 7.8-5.9.4-10.1-2.1-10.5-6.2Z"
      fill="none"
      stroke="#fffdf8"
      stroke-linecap="round"
      stroke-linejoin="round"
      stroke-width="4.9"
    />
    <path d="M13.3 31.7c3.9-6.1 12.2-10.4 22.7-10.5 7.6-.1 14.2 2.2 18 6.3" fill="none" stroke="#fffdf8" stroke-linecap="round" stroke-width="2.1" opacity=".7" />
    <path d="M13.8 44.2c6.5 4.3 18.9 5.8 31.2 1.1" fill="none" stroke="#fffdf8" stroke-linecap="round" stroke-width="1.9" opacity=".58" />
  </g>
</svg>
